<?xml version="1.0" encoding="UTF-8" standalone="no"?>
<!-- Created with Inkscape (http://www.inkscape.org/) -->

<svg
   xmlns:dc="http://purl.org/dc/elements/1.1/"
   xmlns:cc="http://creativecommons.org/ns#"
   xmlns:rdf="http://www.w3.org/1999/02/22-rdf-syntax-ns#"
   xmlns:svg="http://www.w3.org/2000/svg"
   xmlns="http://www.w3.org/2000/svg"
   xmlns:sodipodi="http://sodipodi.sourceforge.net/DTD/sodipodi-0.dtd"
   xmlns:inkscape="http://www.inkscape.org/namespaces/inkscape"
   width="210mm"
   height="297mm"
   viewBox="0 0 744.09448819 1052.3622047"
   id="svg3570"
   version="1.1"
   inkscape:version="0.91 r13725"
   sodipodi:docname="RB3.svg"
   inkscape:export-filename="/home/rajan/Desktop/rb.png"
   inkscape:export-xdpi="94.797218"
   inkscape:export-ydpi="94.797218">
  <defs
     id="defs3572" />
  <sodipodi:namedview
     id="base"
     pagecolor="#ffffff"
     bordercolor="#666666"
     borderopacity="1.0"
     inkscape:pageopacity="0.0"
     inkscape:pageshadow="2"
     inkscape:zoom="0.70000001"
     inkscape:cx="703.3335"
     inkscape:cy="556.78766"
     inkscape:document-units="px"
     inkscape:current-layer="layer1"
     showgrid="false"
     inkscape:window-width="1309"
     inkscape:window-height="744"
     inkscape:window-x="57"
     inkscape:window-y="24"
     inkscape:window-maximized="1" />
  <metadata
     id="metadata3575">
    <rdf:RDF>
      <cc:Work
         rdf:about="">
        <dc:format>image/svg+xml</dc:format>
        <dc:type
           rdf:resource="http://purl.org/dc/dcmitype/StillImage" />
        <dc:title />
      </cc:Work>
    </rdf:RDF>
  </metadata>
  <g
     inkscape:label="Layer 1"
     inkscape:groupmode="layer"
     id="layer1">
    <ellipse
       style="fill:#000000;fill-opacity:1"
       id="path4474"
       cx="367.46555"
       cy="469.08752"
       rx="341.58258"
       ry="323.74368" />
    <rect
       style="fill:#2b1100;fill-opacity:1;fill-rule:evenodd;stroke:#000000;stroke-width:2.96468329px;stroke-linecap:butt;stroke-linejoin:miter;stroke-opacity:1"
       id="rect3592"
       width="664.92505"
       height="629.41895"
       x="35.707077"
       y="155.28355"
       onclick=""
       ry="311.63409"
       rx="332.46252" />
    <path
       style="fill:#000000;fill-opacity:1;fill-rule:nonzero;stroke:none;stroke-width:1px;stroke-linecap:butt;stroke-linejoin:miter;stroke-opacity:1"
       id="path3352-35"
       d="m 403.66413,173.4821 c 9.06492,55.03659 11.8631,110.81518 15.52548,166.39841 3.09554,51.93961 6.0212,104.19462 0.63357,156.10891 -1.20627,11.6236 -2.63332,23.25678 -5.01518,34.69751 -2.26323,10.87092 -5.92812,21.40219 -8.89217,32.10328 -4.10829,9.93351 -7.58297,20.15343 -12.32489,29.80057 -13.83671,28.14984 -32.83085,54.23573 -55.84844,75.56989 -6.81856,6.31988 -13.8382,12.55324 -21.68202,17.54406 -16.56224,10.53818 -34.20849,19.2672 -51.31273,28.90082 -7.3871,1.88641 -14.60071,4.67664 -22.16129,5.65925 -13.02319,1.69255 -27.61127,0.0785 -39.70569,-5.28696 -16.02157,-7.10763 -20.79619,-15.21132 -32.78337,-28.10317 0,0 29.52879,-18.04842 29.52879,-18.04842 l 0,0 c 11.38197,11.06995 17.8994,19.84248 32.58124,25.98178 11.69364,4.88976 25.63445,6.11456 38.07009,4.21315 7.25293,-1.10897 14.13512,-3.94184 21.20267,-5.91279 -20.88294,15.98559 13.43214,-10.25704 15.59661,-12.19013 23.38265,-20.88309 42.52728,-46.66377 56.68278,-74.59812 4.84482,-9.56069 8.46625,-19.69364 12.69936,-29.54048 3.13884,-10.63325 6.97815,-21.08434 9.41646,-31.89971 2.57661,-11.42874 4.23557,-23.06201 5.59803,-34.69812 6.06506,-51.79878 3.03712,-104.07094 0.0131,-155.94306 -3.97096,-54.32728 -7.2218,-109.49285 -21.98325,-162.18924 0,0 34.16067,-18.56743 34.16067,-18.56743 z"
       inkscape:connector-curvature="0" />
    <path
       style="fill:#000000;fill-opacity:1;fill-rule:nonzero;stroke:none;stroke-width:1px;stroke-linecap:butt;stroke-linejoin:miter;stroke-opacity:1"
       id="path3352-3-6"
       d="m 324.07561,175.06914 c -9.23056,55.03659 -12.07985,110.81518 -15.80915,166.39841 -3.15211,51.93961 -6.13122,104.19462 -0.64514,156.1089 1.2283,11.62361 2.68144,23.25679 5.1068,34.69752 2.3046,10.87092 6.03643,21.40219 9.05464,32.10328 4.18335,9.93351 7.72153,20.15343 12.55009,29.80057 14.08953,28.14984 33.43071,54.23573 56.86886,75.56989 6.94314,6.31988 14.09104,12.55324 22.07817,17.54406 16.86486,10.53818 34.83351,19.2672 52.25027,28.90082 7.52206,1.88641 14.86748,4.67664 22.5662,5.65925 13.26114,1.69255 28.11575,0.0785 40.43117,-5.28696 16.3143,-7.10763 21.17615,-15.21132 33.38236,-28.10317 0,0 -30.06831,-18.04843 -30.06831,-18.04843 l 0,0 c -11.58993,11.06996 -18.22645,19.84249 -33.17654,25.98179 -11.90731,4.88976 -26.10284,6.11456 -38.76567,4.21315 -7.38547,-1.10897 -14.3934,-3.94184 -21.59008,-5.91279 21.26449,15.98559 -13.67754,-10.25704 -15.88157,-12.19013 -23.80989,-20.88309 -43.30431,-46.66377 -57.71846,-74.59812 -4.93332,-9.56069 -8.62094,-19.69364 -12.93138,-29.54048 -3.19619,-10.63325 -7.10564,-21.08434 -9.58851,-31.89971 -2.6237,-11.42874 -4.31296,-23.06201 -5.70033,-34.69812 -6.17585,-51.79878 -3.09261,-104.07094 -0.0131,-155.94306 4.04351,-54.32728 7.35377,-109.49285 22.38493,-162.18924 0,0 -34.78483,-18.56743 -34.78483,-18.56743 z"
       inkscape:connector-curvature="0" />
    <path
       style="fill:#000000;fill-opacity:1;fill-rule:nonzero;stroke:none;stroke-width:1px;stroke-linecap:butt;stroke-linejoin:miter;stroke-opacity:1"
       id="path3457-2"
       d="m 296.17135,426.04099 c -20.14354,8.14047 -42.52705,7.57002 -63.86349,7.43563 -15.98794,-0.93581 -32.29036,-1.99874 -47.85686,-6.12201 -6.6743,-1.76791 -13.95823,-4.24701 -18.97721,-9.37498 -2.41738,-2.46989 -3.84994,-5.74061 -5.77492,-8.61094 -0.84695,-4.09997 -2.50725,-8.11353 -2.54087,-12.29994 -0.10778,-13.40626 5.16991,-25.14213 11.51883,-36.70433 9.62323,-17.5252 22.24475,-33.79295 35.35069,-48.7793 6.67085,-7.62797 13.96211,-14.69029 20.94314,-22.03542 19.91289,-18.62004 40.30562,-37.63396 64.13427,-51.2704 41.88086,-23.96721 27.46535,-18.74408 51.51876,-26.3145 11.61448,-0.94475 5.63191,-0.62753 17.95076,-0.89188 0,0 -30.34882,22.24357 -30.34882,22.24357 l 0,0 c -12.17391,0.7522 -6.40462,0.12584 -17.32318,1.73316 -17.48457,6.13295 -8.48704,3.67959 12.28936,-9.96598 4.18375,-2.74782 -8.69932,4.96584 -12.88942,7.70395 -19.61777,12.81967 -37.68323,27.88406 -54.66961,43.98929 -7.06679,7.278 -14.47385,14.24043 -21.2004,21.834 -13.09218,14.77968 -24.58081,29.74664 -33.9415,47.15623 -5.40754,10.05731 -10.56047,21.95309 -10.57991,33.76718 -0.005,3.67347 1.47392,7.19758 2.21086,10.79638 1.69904,2.46136 2.98037,5.27115 5.0971,7.38408 4.55025,4.54206 11.45499,6.99171 17.3964,8.65574 15.15854,4.24554 31.04966,5.40676 46.69376,6.00693 22.34311,-0.42569 45.05771,-1.22415 65.83362,-10.39801 0,0 -30.97136,24.06155 -30.97136,24.06155 z"
       inkscape:connector-curvature="0" />
    <path
       style="fill:#000000;fill-opacity:1;fill-rule:nonzero;stroke:none;stroke-width:1px;stroke-linecap:butt;stroke-linejoin:miter;stroke-opacity:1"
       id="path3457-7-2"
       d="m 306.43051,617.11984 c -20.14354,8.14047 -74.24072,7.57003 -95.57716,7.43563 -15.98794,-0.9358 -32.29036,-1.99873 -47.85686,-6.12201 -6.6743,-1.7679 -13.95823,-4.247 -18.97721,-9.37497 -2.41738,-2.46989 -3.84994,-5.74062 -5.77492,-8.61095 -0.84695,-4.09997 -2.50725,-8.11352 -2.54087,-12.29993 -0.10778,-13.40626 5.16991,-25.14213 11.51883,-36.70434 9.62323,-17.5252 22.24475,-33.79295 35.35069,-48.77929 6.67085,-7.62798 13.96211,-14.69029 20.94314,-22.03542 19.91289,-18.62005 40.30562,-37.63397 64.13427,-51.27041 41.88086,-23.9672 27.46535,-18.74408 51.51876,-26.3145 11.61448,-0.94475 5.63191,-0.62753 17.95076,-0.89187 l -30.34882,22.24357 0,0 c -12.17391,0.75219 -6.40462,0.12584 -17.32318,1.73315 -17.48457,6.13295 -8.48704,3.67959 12.28936,-9.96598 4.18375,-2.74781 -8.69932,4.96584 -12.88942,7.70395 -19.61777,12.81968 -37.68323,27.88406 -54.66961,43.98929 -7.06679,7.278 -14.47385,14.24043 -21.2004,21.834 -13.09218,14.77969 -24.58081,29.74664 -33.9415,47.15623 -5.40754,10.05731 -10.56047,21.95309 -10.57991,33.76718 -0.005,3.67347 1.47392,7.19758 2.21086,10.79638 1.69904,2.46136 2.98037,5.27116 5.0971,7.38409 4.55025,4.54206 11.45499,6.9917 17.3964,8.65574 15.15854,4.24553 31.04966,5.40675 46.69376,6.00692 22.34311,-0.42569 45.05771,-1.22414 65.83362,-10.398 z"
       inkscape:connector-curvature="0"
       sodipodi:nodetypes="ccsscssscscccccsscssccssccc" />
    <path
       style="fill:#000000;fill-opacity:1;fill-rule:nonzero;stroke:none;stroke-width:1px;stroke-linecap:butt;stroke-linejoin:miter;stroke-opacity:1"
       id="path3356-5"
       d="m 208.7968,474.92342 c 2.04201,-1.54314 4.17668,-2.9708 6.12604,-4.62942 3.00536,-2.55714 24.46395,-22.37127 25.12249,-22.9683 18.01203,-16.33056 36.42486,-32.03342 55.24032,-47.42617 6.44836,-4.85253 12.867,-9.74488 19.34513,-14.55765 16.08504,-11.9499 20.21303,-14.56094 35.99612,-26.64966 16.29109,-12.47784 17.84417,-14.39884 34.34914,-26.62081 5.75289,-4.26003 11.64388,-8.33033 17.46581,-12.49549 35.90772,-23.00793 72.65606,-45.98892 113.53055,-58.96468 6.22912,-1.27353 18.08068,-6.34716 22.7747,1.05542 0.8772,1.38337 1.23622,3.03393 1.85434,4.55088 0.31965,2.30025 0.8788,4.57979 0.95893,6.90076 0.76237,22.07935 -10.71593,45.56838 -19.32128,65.23145 -13.90685,30.47275 -31.00801,59.36359 -50.26241,86.73432 -6.79627,9.74802 -13.55191,19.53796 -19.82017,29.63747 -6.86152,12.3044 -1.81212,3.64576 -36.21002,17.78779 -0.63586,0.26136 -1.35773,-1.54727 -0.77462,-1.91148 31.86357,-19.90232 26.44,-26.94386 44.21575,-15.17369 9.30536,8.3521 17.77581,17.57828 27.3302,25.66985 7.34349,6.21915 11.91129,9.32338 19.75312,15.04225 26.88486,20.25719 54.58838,39.36998 83.88584,55.97039 18.49857,10.47405 38.413,17.57836 59.31894,21.13551 4.76337,0.29514 7.4177,0.78812 12.01884,-0.0463 7.79531,-1.41384 62.66891,-35.00364 -23.20478,14.32883 1.30161,-1.77703 0.8519,-0.8818 1.48299,-2.61412 0,0 35.65499,-16.65324 35.65499,-16.65324 l 0,0 c -0.77854,2.21942 -0.38438,0.92464 -1.06471,3.91825 -7.83293,4.88201 -28.10435,23.05492 -43.94458,23.75751 -4.82407,0.21401 -7.13923,-0.31897 -12.08961,-0.94263 C 597.76192,590.63331 578.06462,582.9201 559.88331,571.87254 530.9335,554.41 502.91915,535.42661 475.31252,515.9194 c -8.67078,-6.22086 -12.10895,-8.45832 -20.24254,-15.16917 -7.77532,-6.41524 -14.85731,-13.60894 -22.52921,-20.12784 -1.75877,-1.49442 -3.65471,-2.81945 -5.48208,-4.22918 -1.4922,-0.75463 -2.91297,-1.67126 -4.47657,-2.26392 -1.00867,-0.38234 -4.04126,0.005 -3.17306,-0.63556 9.99894,-7.37268 21.16858,-13.03499 31.35595,-20.14503 0.39209,-0.27366 -0.51193,-1.28884 -0.94266,-1.08124 -63.98125,30.83832 -45.94536,23.07915 -33.77012,17.86024 2.43125,-2.37864 4.20156,-5.36639 6.16581,-8.13137 5.28403,-7.43817 10.59775,-14.85522 15.93034,-22.25864 19.97039,-27.04553 37.67362,-55.78766 51.56716,-86.45609 7.53565,-17.62116 19.00042,-42.56223 18.00738,-62.26899 -0.0999,-1.98123 -0.665,-3.91136 -0.99747,-5.86706 -0.36845,-0.93237 -0.52794,-1.97759 -1.10537,-2.79715 -2.77607,-3.94025 -16.33182,0.73158 -19.45562,1.35751 -10.80668,3.45868 -21.2112,7.40267 -31.47914,12.28735 -5.04284,2.39902 -9.56515,8.89677 -14.97497,7.51129 -4.98182,-1.27586 17.44857,-10.88088 13.2145,-7.96215 -5.77118,3.97834 -11.88811,7.43021 -17.83217,11.14533 -5.85371,4.13435 -11.78421,8.16208 -17.56114,12.40304 -17.65808,12.96312 -17.02519,13.33152 -34.40974,26.68318 -15.8638,12.18369 -20.14222,14.87957 -36.41134,26.81726 -6.52266,4.78611 -12.99554,9.63971 -19.49332,14.45954 -18.57774,15.09709 -36.76644,30.44183 -54.28078,46.77405 -4.57597,4.26709 -9.03625,8.65662 -13.55437,12.98497 -3.02933,3.10359 -5.95028,6.31681 -9.088,9.31079 -1.65791,1.58196 -3.52112,2.93372 -5.2817,4.40057 0,0 -36.21549,14.40238 -36.21549,14.40238 z"
       inkscape:connector-curvature="0" />
    <path
       style="fill:#d4aa00;fill-opacity:1;fill-rule:nonzero;stroke:none;stroke-width:1px;stroke-linecap:butt;stroke-linejoin:miter;stroke-opacity:1"
       id="path3352-3"
       d="m 332.90509,173.55091 c -9.23055,55.03659 -12.07985,110.81518 -15.80915,166.39841 -3.1521,51.93961 -6.13122,104.19461 -0.64514,156.1089 1.2283,11.62361 2.68144,23.25679 5.1068,34.69752 2.3046,10.87091 6.03644,21.40219 9.05464,32.10328 4.18335,9.93351 7.72153,20.15342 12.5501,29.80056 14.08952,28.14985 33.43071,54.23574 56.86885,75.5699 6.94315,6.31988 14.09104,12.55324 22.07817,17.54406 16.86486,10.53818 34.83351,19.2672 52.25027,28.90081 7.52207,1.88642 14.86749,4.67664 22.5662,5.65925 13.26114,1.69256 28.11576,0.0785 40.43118,-5.28696 16.31429,-7.10762 21.17614,-15.21131 33.38236,-28.10317 0,0 -30.06831,-18.04842 -30.06831,-18.04842 l 0,0 c -11.58994,11.06996 -18.22646,19.84249 -33.17654,25.98179 -11.90731,4.88976 -26.10285,6.11456 -38.76568,4.21315 -7.38547,-1.10897 -14.39339,-3.94184 -21.59008,-5.91279 21.26449,15.98559 -13.67754,-10.25704 -15.88157,-12.19013 -23.80989,-20.88309 -43.30431,-46.66377 -57.71845,-74.59812 -4.93332,-9.5607 -8.62095,-19.69365 -12.93139,-29.54048 -3.19619,-10.63325 -7.10564,-21.08434 -9.58851,-31.89971 -2.6237,-11.42875 -4.31296,-23.06201 -5.70032,-34.69812 -6.17586,-51.79878 -3.09261,-104.07095 -0.0131,-155.94306 4.04351,-54.32728 7.35377,-109.49285 22.38493,-162.18924 0,0 -34.78482,-18.56743 -34.78482,-18.56743 z"
       inkscape:connector-curvature="0" />
    <path
       style="fill:#d4aa00;fill-opacity:1;fill-rule:nonzero;stroke:none;stroke-width:1px;stroke-linecap:butt;stroke-linejoin:miter;stroke-opacity:1"
       id="path3356"
       d="m 193.79764,482.47542 c 2.042,-1.54314 4.17668,-2.9708 6.12604,-4.62942 3.00536,-2.55715 24.46395,-22.37127 25.12248,-22.9683 18.01203,-16.33057 36.42487,-32.03342 55.24032,-47.42617 6.44837,-4.85253 12.86701,-9.74488 19.34514,-14.55765 16.08504,-11.9499 20.21302,-14.56094 35.99612,-26.64966 16.29109,-12.47784 17.84417,-14.39884 34.34914,-26.62081 5.75288,-4.26003 11.64388,-8.33033 17.46581,-12.49549 35.90771,-23.00794 72.65605,-45.98892 113.53055,-58.96468 6.22912,-1.27353 18.08068,-6.34716 22.77469,1.05542 0.8772,1.38337 1.23623,3.03393 1.85435,4.55088 0.31965,2.30025 0.87879,4.57979 0.95893,6.90076 0.76237,22.07935 -10.71593,45.56838 -19.32128,65.23144 -13.90685,30.47276 -31.00801,59.3636 -50.26242,86.73433 -6.79627,9.74802 -13.55191,19.53795 -19.82017,29.63747 -6.86151,12.3044 -1.81211,3.64576 -36.21002,17.78779 -0.63585,0.26136 -1.35772,-1.54727 -0.77462,-1.91148 31.86358,-19.90232 26.44,-26.94386 44.21576,-15.17369 9.30535,8.35209 17.77581,17.57828 27.3302,25.66985 7.34348,6.21915 11.91129,9.32338 19.75312,15.04225 26.88486,20.25719 54.58837,39.36995 83.88583,55.97036 18.49858,10.47405 38.41301,17.57836 59.31894,21.13551 4.76337,0.29514 7.41771,0.78812 12.01885,-0.0463 7.7953,-1.41384 62.66891,-35.00364 -23.20478,14.32883 1.30161,-1.77703 0.8519,-0.8818 1.48299,-2.61412 0,0 35.65499,-16.65323 35.65499,-16.65323 l 0,0 c -0.77855,2.21941 -0.38438,0.92463 -1.06471,3.91824 -7.83293,4.88202 -28.10435,23.05492 -43.94458,23.75751 -4.82407,0.21401 -7.13923,-0.31897 -12.08961,-0.94263 -20.76694,-4.35715 -40.46425,-12.07036 -58.64555,-23.11792 -28.94981,-17.46254 -56.96416,-36.44593 -84.5708,-55.95311 -8.67078,-6.22086 -12.10894,-8.45832 -20.24253,-15.16917 -7.77532,-6.41524 -14.85731,-13.60894 -22.52921,-20.12784 -1.75877,-1.49442 -3.65471,-2.81945 -5.48208,-4.22918 -1.4922,-0.75463 -2.91298,-1.67126 -4.47658,-2.26392 -1.00866,-0.38234 -4.04126,0.005 -3.17305,-0.63556 9.99894,-7.37268 21.16858,-13.03499 31.35594,-20.14503 0.3921,-0.27366 -0.51192,-1.28884 -0.94266,-1.08124 -63.98124,30.83832 -45.94535,23.07914 -33.77011,17.86023 2.43125,-2.37863 4.20156,-5.36638 6.16581,-8.13136 5.28403,-7.43817 10.59775,-14.85522 15.93033,-22.25864 19.9704,-27.04553 37.67363,-55.78767 51.56717,-86.45609 7.53565,-17.62116 19.00042,-42.56224 18.00737,-62.26899 -0.0999,-1.98123 -0.66499,-3.91136 -0.99747,-5.86706 -0.36844,-0.93238 -0.52793,-1.97759 -1.10536,-2.79716 -2.77607,-3.94024 -16.33182,0.73158 -19.45562,1.35752 -10.80668,3.45868 -21.2112,7.40266 -31.47915,12.28735 -5.04283,2.39902 -9.56514,8.89677 -14.97496,7.51129 -4.98183,-1.27587 17.44857,-10.88088 13.21449,-7.96215 -5.77117,3.97834 -11.88811,7.43021 -17.83216,11.14533 -5.85372,4.13435 -11.78422,8.16208 -17.56115,12.40304 -17.65807,12.96312 -17.02518,13.33152 -34.40973,26.68318 -15.8638,12.18369 -20.14223,14.87957 -36.41134,26.81726 -6.52266,4.7861 -12.99554,9.63971 -19.49332,14.45954 -18.57774,15.09708 -36.76645,30.44183 -54.28079,46.77404 -4.57597,4.2671 -9.03624,8.65663 -13.55437,12.98497 -3.02932,3.1036 -5.95028,6.31682 -9.08799,9.3108 -1.65791,1.58196 -3.52113,2.93372 -5.2817,4.40057 0,0 -36.21549,14.40237 -36.21549,14.40237 z"
       inkscape:connector-curvature="0" />
    <path
       style="fill:#d4aa00;fill-opacity:1;fill-rule:nonzero;stroke:none;stroke-width:1px;stroke-linecap:butt;stroke-linejoin:miter;stroke-opacity:1"
       id="path3352"
       d="m 396.54465,174.53378 c 9.06492,55.03659 11.8631,110.81518 15.52548,166.39841 3.09554,51.93961 6.0212,104.19461 0.63357,156.1089 -1.20627,11.62361 -2.63333,23.25679 -5.01518,34.69752 -2.26323,10.87091 -5.92812,21.40219 -8.89217,32.10328 -4.10829,9.93351 -7.58297,20.15342 -12.32489,29.80056 -13.83671,28.14985 -32.83085,54.23574 -55.84844,75.5699 -6.81856,6.31988 -13.8382,12.55324 -21.68202,17.54406 -16.56224,10.53818 -34.20849,19.2672 -51.31273,28.90081 -7.3871,1.88642 -14.60071,4.67664 -22.16129,5.65925 -13.02319,1.69256 -27.61127,0.0785 -39.70569,-5.28695 -16.02157,-7.10763 -20.79619,-15.21132 -32.78337,-28.10318 0,0 29.52879,-18.04842 29.52879,-18.04842 l 0,0 c 11.38197,11.06996 17.8994,19.84249 32.58124,25.98179 11.69364,4.88976 25.63445,6.11456 38.07009,4.21315 7.25293,-1.10897 14.13512,-3.94184 21.20267,-5.91279 -20.88294,15.98559 13.43214,-10.25704 15.59661,-12.19013 23.38265,-20.88309 42.52728,-46.66377 56.68278,-74.59812 4.84482,-9.5607 8.46625,-19.69364 12.69936,-29.54048 3.13884,-10.63325 6.97815,-21.08434 9.41646,-31.89971 2.57661,-11.42875 4.23557,-23.06201 5.59803,-34.69812 6.06506,-51.79878 3.03712,-104.07095 0.0131,-155.94306 -3.97096,-54.32728 -7.2218,-109.49285 -21.98325,-162.18924 0,0 34.16067,-18.56743 34.16067,-18.56743 z"
       inkscape:connector-curvature="0" />
    <path
       style="fill:#d4aa00;fill-opacity:1;fill-rule:nonzero;stroke:none;stroke-width:1px;stroke-linecap:butt;stroke-linejoin:miter;stroke-opacity:1"
       id="path3457"
       d="m 304.97069,412.35602 c -20.14353,8.14047 -42.52704,7.57002 -63.86348,7.43563 -15.98795,-0.93581 -32.29037,-1.99874 -47.85686,-6.12202 -6.6743,-1.7679 -13.95824,-4.247 -18.97722,-9.37497 -2.41738,-2.46989 -3.84993,-5.74061 -5.77491,-8.61095 -0.84696,-4.09996 -2.50725,-8.11352 -2.54087,-12.29993 -0.10779,-13.40626 5.16991,-25.14213 11.51882,-36.70433 9.62323,-17.5252 22.24475,-33.79295 35.3507,-48.7793 6.67084,-7.62797 13.96211,-14.69029 20.94313,-22.03542 19.91289,-18.62004 40.30563,-37.63396 64.13427,-51.2704 41.88086,-23.96721 27.46536,-18.74408 51.51877,-26.3145 11.61447,-0.94475 5.63191,-0.62753 17.95075,-0.89188 0,0 -30.34882,22.24357 -30.34882,22.24357 l 0,0 c -12.17391,0.7522 -6.40462,0.12584 -17.32317,1.73316 -17.48457,6.13294 -8.48705,3.67959 12.28936,-9.96598 4.18374,-2.74782 -8.69933,4.96584 -12.88942,7.70395 -19.61778,12.81967 -37.68323,27.88406 -54.66962,43.98929 -7.06679,7.278 -14.47384,14.24043 -21.20039,21.834 -13.09218,14.77968 -24.58082,29.74664 -33.9415,47.15623 -5.40754,10.05731 -10.56047,21.95308 -10.57991,33.76718 -0.005,3.67347 1.47391,7.19757 2.21086,10.79637 1.69904,2.46137 2.98037,5.27116 5.09709,7.38409 4.55025,4.54206 11.45499,6.99171 17.3964,8.65574 15.15855,4.24554 31.04967,5.40676 46.69376,6.00692 22.34312,-0.42569 45.05772,-1.22414 65.83362,-10.398 0,0 -30.97136,24.06155 -30.97136,24.06155 z"
       inkscape:connector-curvature="0" />
    <path
       style="fill:#d4aa00;fill-opacity:1;fill-rule:nonzero;stroke:none;stroke-width:1px;stroke-linecap:butt;stroke-linejoin:miter;stroke-opacity:1"
       id="path3457-7"
       d="m 312.92918,603.48314 c -20.14354,8.14047 -74.24072,7.57003 -95.57715,7.43563 -15.98795,-0.93581 -32.29037,-1.99873 -47.85686,-6.12201 -6.67431,-1.7679 -13.95824,-4.247 -18.97722,-9.37497 -2.41738,-2.46989 -3.84993,-5.74062 -5.77491,-8.61095 -0.84696,-4.09997 -2.50725,-8.11352 -2.54087,-12.29993 -0.10779,-13.40627 5.1699,-25.14214 11.51882,-36.70434 9.62323,-17.5252 22.24475,-33.79295 35.35069,-48.77929 6.67085,-7.62798 13.96211,-14.69029 20.94314,-22.03543 19.91289,-18.62004 40.30562,-37.63396 64.13427,-51.2704 41.88086,-23.9672 27.46536,-18.74408 51.51876,-26.3145 11.61448,-0.94475 5.63191,-0.62753 17.95076,-0.89187 l -30.34882,22.24356 0,0 c -12.17391,0.7522 -6.40462,0.12585 -17.32318,1.73316 -17.48456,6.13295 -8.48704,3.67959 12.28937,-9.96598 4.18374,-2.74781 -8.69933,4.96584 -12.88943,7.70395 -19.61777,12.81967 -37.68323,27.88406 -54.66961,43.98929 -7.06679,7.278 -14.47385,14.24043 -21.20039,21.834 -13.09219,14.77969 -24.58082,29.74664 -33.94151,47.15623 -5.40754,10.05731 -10.56047,21.95309 -10.5799,33.76718 -0.005,3.67347 1.47391,7.19758 2.21085,10.79638 1.69904,2.46136 2.98038,5.27115 5.0971,7.38409 4.55025,4.54206 11.45499,6.9917 17.3964,8.65573 15.15855,4.24554 31.04967,5.40676 46.69376,6.00693 22.34312,-0.42569 45.05771,-1.22414 65.83362,-10.398 z"
       inkscape:connector-curvature="0"
       sodipodi:nodetypes="ccsscssscscccccsscssccssccc" />
  </g>
</svg>
